<mxfile host="65bd71144e">
    <diagram id="zlzDNkWzBY3nPm5Qsbml" name="BackEnd">
        <mxGraphModel dx="1113" dy="1813" grid="1" gridSize="10" guides="1" tooltips="1" connect="1" arrows="1" fold="1" page="1" pageScale="1" pageWidth="850" pageHeight="1100" math="0" shadow="0">
            <root>
                <mxCell id="0"/>
                <mxCell id="1" parent="0"/>
                <mxCell id="KoJjdDhNUGe4t5XkSzCP-14" style="edgeStyle=none;html=1;exitX=1;exitY=0.5;exitDx=0;exitDy=0;entryX=0;entryY=0.5;entryDx=0;entryDy=0;" edge="1" parent="1" source="KoJjdDhNUGe4t5XkSzCP-11" target="KoJjdDhNUGe4t5XkSzCP-12">
                    <mxGeometry relative="1" as="geometry"/>
                </mxCell>
                <mxCell id="KoJjdDhNUGe4t5XkSzCP-17" style="edgeStyle=none;html=1;exitX=0.5;exitY=1;exitDx=0;exitDy=0;entryX=0;entryY=0.5;entryDx=0;entryDy=0;" edge="1" parent="1" source="KoJjdDhNUGe4t5XkSzCP-11" target="KoJjdDhNUGe4t5XkSzCP-16">
                    <mxGeometry relative="1" as="geometry">
                        <Array as="points">
                            <mxPoint x="120" y="400"/>
                        </Array>
                    </mxGeometry>
                </mxCell>
                <mxCell id="KoJjdDhNUGe4t5XkSzCP-43" style="edgeStyle=none;html=1;exitX=0.5;exitY=1;exitDx=0;exitDy=0;entryX=0;entryY=0.5;entryDx=0;entryDy=0;" edge="1" parent="1" source="KoJjdDhNUGe4t5XkSzCP-11" target="KoJjdDhNUGe4t5XkSzCP-39">
                    <mxGeometry relative="1" as="geometry">
                        <Array as="points">
                            <mxPoint x="120" y="840"/>
                        </Array>
                    </mxGeometry>
                </mxCell>
                <mxCell id="KoJjdDhNUGe4t5XkSzCP-11" value="Front-end" style="rounded=0;whiteSpace=wrap;html=1;" vertex="1" parent="1">
                    <mxGeometry x="40" y="160" width="160" height="80" as="geometry"/>
                </mxCell>
                <mxCell id="KoJjdDhNUGe4t5XkSzCP-44" style="edgeStyle=none;html=1;exitX=1;exitY=0.5;exitDx=0;exitDy=0;entryX=0;entryY=0.5;entryDx=0;entryDy=0;" edge="1" parent="1" source="KoJjdDhNUGe4t5XkSzCP-12" target="3">
                    <mxGeometry relative="1" as="geometry"/>
                </mxCell>
                <mxCell id="KoJjdDhNUGe4t5XkSzCP-12" value="URL-parser" style="rounded=0;whiteSpace=wrap;html=1;" vertex="1" parent="1">
                    <mxGeometry x="360" y="160" width="160" height="80" as="geometry"/>
                </mxCell>
                <mxCell id="KoJjdDhNUGe4t5XkSzCP-15" value="HTTP" style="text;html=1;align=center;verticalAlign=middle;resizable=0;points=[];autosize=1;strokeColor=none;" vertex="1" parent="1">
                    <mxGeometry x="210" y="180" width="50" height="20" as="geometry"/>
                </mxCell>
                <mxCell id="KoJjdDhNUGe4t5XkSzCP-36" style="edgeStyle=none;html=1;exitX=0.5;exitY=1;exitDx=0;exitDy=0;entryX=0.5;entryY=0;entryDx=0;entryDy=0;" edge="1" parent="1" source="KoJjdDhNUGe4t5XkSzCP-16" target="KoJjdDhNUGe4t5XkSzCP-29">
                    <mxGeometry relative="1" as="geometry"/>
                </mxCell>
                <mxCell id="KoJjdDhNUGe4t5XkSzCP-16" value="Main handler" style="rounded=0;whiteSpace=wrap;html=1;" vertex="1" parent="1">
                    <mxGeometry x="360" y="360" width="160" height="80" as="geometry"/>
                </mxCell>
                <mxCell id="KoJjdDhNUGe4t5XkSzCP-51" style="edgeStyle=none;html=1;exitX=1;exitY=0.5;exitDx=0;exitDy=0;entryX=0;entryY=0.5;entryDx=0;entryDy=0;" edge="1" parent="1" source="3" target="KoJjdDhNUGe4t5XkSzCP-49">
                    <mxGeometry relative="1" as="geometry">
                        <Array as="points">
                            <mxPoint x="920" y="200"/>
                            <mxPoint x="920" y="66"/>
                        </Array>
                    </mxGeometry>
                </mxCell>
                <mxCell id="3" value="Authentication" style="rounded=0;whiteSpace=wrap;html=1;" vertex="1" parent="1">
                    <mxGeometry x="700" y="160" width="160" height="80" as="geometry"/>
                </mxCell>
                <mxCell id="KoJjdDhNUGe4t5XkSzCP-37" style="edgeStyle=none;html=1;exitX=0;exitY=0.5;exitDx=0;exitDy=0;entryX=0.5;entryY=1;entryDx=0;entryDy=0;" edge="1" parent="1" source="KoJjdDhNUGe4t5XkSzCP-29" target="KoJjdDhNUGe4t5XkSzCP-11">
                    <mxGeometry relative="1" as="geometry">
                        <mxPoint x="120" y="635" as="targetPoint"/>
                        <Array as="points">
                            <mxPoint x="120" y="615"/>
                        </Array>
                    </mxGeometry>
                </mxCell>
                <mxCell id="KoJjdDhNUGe4t5XkSzCP-29" value="CreateRoomEvent" style="swimlane;" vertex="1" parent="1">
                    <mxGeometry x="340" y="530" width="200" height="170" as="geometry"/>
                </mxCell>
                <mxCell id="KoJjdDhNUGe4t5XkSzCP-31" value="Input:&amp;nbsp; None" style="rounded=0;whiteSpace=wrap;html=1;align=left;" vertex="1" parent="KoJjdDhNUGe4t5XkSzCP-29">
                    <mxGeometry y="30" width="200" height="20" as="geometry"/>
                </mxCell>
                <mxCell id="KoJjdDhNUGe4t5XkSzCP-34" value="Output: RoomID" style="rounded=0;whiteSpace=wrap;html=1;align=left;" vertex="1" parent="KoJjdDhNUGe4t5XkSzCP-29">
                    <mxGeometry y="50" width="200" height="20" as="geometry"/>
                </mxCell>
                <mxCell id="KoJjdDhNUGe4t5XkSzCP-35" value="Description:&lt;br&gt;return generated RoomID and create corresponding RoomID event Handle for Game room" style="rounded=0;whiteSpace=wrap;html=1;align=left;" vertex="1" parent="KoJjdDhNUGe4t5XkSzCP-29">
                    <mxGeometry y="70" width="200" height="100" as="geometry"/>
                </mxCell>
                <mxCell id="11" value="CheckLogin" style="swimlane;fontStyle=0;childLayout=stackLayout;horizontal=1;startSize=26;horizontalStack=0;resizeParent=1;resizeParentMax=0;resizeLast=0;collapsible=1;marginBottom=0;" vertex="1" parent="1">
                    <mxGeometry x="1240" y="-40" width="150" height="160" as="geometry"/>
                </mxCell>
                <mxCell id="13" value="Input: password " style="text;strokeColor=none;fillColor=none;align=left;verticalAlign=top;spacingLeft=4;spacingRight=4;overflow=hidden;rotatable=0;points=[[0,0.5],[1,0.5]];portConstraint=eastwest;" vertex="1" parent="11">
                    <mxGeometry y="26" width="150" height="26" as="geometry"/>
                </mxCell>
                <mxCell id="14" value="Output: true or false&#10;&#10;Description:&#10;return true if password is &#10;valid&#10;return false if password is&#10;unvalid" style="text;strokeColor=none;fillColor=none;align=left;verticalAlign=top;spacingLeft=4;spacingRight=4;overflow=hidden;rotatable=0;points=[[0,0.5],[1,0.5]];portConstraint=eastwest;" vertex="1" parent="11">
                    <mxGeometry y="52" width="150" height="108" as="geometry"/>
                </mxCell>
                <mxCell id="15" value="Respone" style="rounded=0;whiteSpace=wrap;html=1;" vertex="1" parent="1">
                    <mxGeometry x="360" y="20" width="160" height="60" as="geometry"/>
                </mxCell>
                <mxCell id="KoJjdDhNUGe4t5XkSzCP-38" value="Send Room ID back to user&lt;br&gt;" style="text;html=1;align=center;verticalAlign=middle;resizable=0;points=[];autosize=1;strokeColor=none;" vertex="1" parent="1">
                    <mxGeometry x="170" y="620" width="160" height="20" as="geometry"/>
                </mxCell>
                <mxCell id="KoJjdDhNUGe4t5XkSzCP-39" value="RoomEventHandler" style="swimlane;" vertex="1" parent="1">
                    <mxGeometry x="340" y="720" width="200" height="240" as="geometry"/>
                </mxCell>
                <mxCell id="KoJjdDhNUGe4t5XkSzCP-40" value="Event params:&amp;nbsp; &lt;br&gt;JSON contain following property:&lt;br&gt;&lt;span style=&quot;white-space: pre&quot;&gt;&#9;&lt;/span&gt;-Action: {&quot;Answer&quot;,&quot;Leave&quot;,...}&lt;br&gt;&lt;span style=&quot;white-space: pre&quot;&gt;&#9;&lt;/span&gt;-Payload:{}" style="rounded=0;whiteSpace=wrap;html=1;align=left;" vertex="1" parent="KoJjdDhNUGe4t5XkSzCP-39">
                    <mxGeometry y="30" width="200" height="90" as="geometry"/>
                </mxCell>
                <mxCell id="KoJjdDhNUGe4t5XkSzCP-41" value="BroadCast event:&lt;br&gt;-Round end&lt;br&gt;-Game end&lt;br&gt;-Game leader board&lt;br&gt;-Question" style="rounded=0;whiteSpace=wrap;html=1;align=left;" vertex="1" parent="KoJjdDhNUGe4t5XkSzCP-39">
                    <mxGeometry y="120" width="200" height="120" as="geometry"/>
                </mxCell>
                <mxCell id="18" value="" style="endArrow=classic;html=1;exitX=0;exitY=0.5;exitDx=0;exitDy=0;entryX=0.5;entryY=0;entryDx=0;entryDy=0;" edge="1" parent="1" source="15" target="KoJjdDhNUGe4t5XkSzCP-11">
                    <mxGeometry width="50" height="50" relative="1" as="geometry">
                        <mxPoint x="390" y="340" as="sourcePoint"/>
                        <mxPoint x="440" y="290" as="targetPoint"/>
                        <Array as="points">
                            <mxPoint x="120" y="50"/>
                        </Array>
                    </mxGeometry>
                </mxCell>
                <mxCell id="KoJjdDhNUGe4t5XkSzCP-47" value="CheckAction" style="swimlane;fontStyle=0;childLayout=stackLayout;horizontal=1;startSize=26;horizontalStack=0;resizeParent=1;resizeParentMax=0;resizeLast=0;collapsible=1;marginBottom=0;" vertex="1" parent="1">
                    <mxGeometry x="960" y="-40" width="190" height="160" as="geometry"/>
                </mxCell>
                <mxCell id="KoJjdDhNUGe4t5XkSzCP-48" value="Input: ActionType" style="text;strokeColor=none;fillColor=none;align=left;verticalAlign=top;spacingLeft=4;spacingRight=4;overflow=hidden;rotatable=0;points=[[0,0.5],[1,0.5]];portConstraint=eastwest;" vertex="1" parent="KoJjdDhNUGe4t5XkSzCP-47">
                    <mxGeometry y="26" width="190" height="26" as="geometry"/>
                </mxCell>
                <mxCell id="KoJjdDhNUGe4t5XkSzCP-49" value="Output: Action Is login" style="text;strokeColor=none;fillColor=none;align=left;verticalAlign=top;spacingLeft=4;spacingRight=4;overflow=hidden;rotatable=0;points=[[0,0.5],[1,0.5]];portConstraint=eastwest;" vertex="1" parent="KoJjdDhNUGe4t5XkSzCP-47">
                    <mxGeometry y="52" width="190" height="108" as="geometry"/>
                </mxCell>
                <mxCell id="KoJjdDhNUGe4t5XkSzCP-50" style="edgeStyle=none;html=1;exitX=1;exitY=0.5;exitDx=0;exitDy=0;entryX=0;entryY=0.5;entryDx=0;entryDy=0;" edge="1" parent="1" source="KoJjdDhNUGe4t5XkSzCP-49" target="14">
                    <mxGeometry relative="1" as="geometry"/>
                </mxCell>
                <mxCell id="KoJjdDhNUGe4t5XkSzCP-53" value="CheckLogged" style="swimlane;fontStyle=0;childLayout=stackLayout;horizontal=1;startSize=26;horizontalStack=0;resizeParent=1;resizeParentMax=0;resizeLast=0;collapsible=1;marginBottom=0;" vertex="1" parent="1">
                    <mxGeometry x="960" y="-240" width="190" height="160" as="geometry"/>
                </mxCell>
                <mxCell id="KoJjdDhNUGe4t5XkSzCP-54" value="Input: ActionType" style="text;strokeColor=none;fillColor=none;align=left;verticalAlign=top;spacingLeft=4;spacingRight=4;overflow=hidden;rotatable=0;points=[[0,0.5],[1,0.5]];portConstraint=eastwest;" vertex="1" parent="KoJjdDhNUGe4t5XkSzCP-53">
                    <mxGeometry y="26" width="190" height="26" as="geometry"/>
                </mxCell>
                <mxCell id="KoJjdDhNUGe4t5XkSzCP-55" value="Output: Action Is login" style="text;strokeColor=none;fillColor=none;align=left;verticalAlign=top;spacingLeft=4;spacingRight=4;overflow=hidden;rotatable=0;points=[[0,0.5],[1,0.5]];portConstraint=eastwest;" vertex="1" parent="KoJjdDhNUGe4t5XkSzCP-53">
                    <mxGeometry y="52" width="190" height="108" as="geometry"/>
                </mxCell>
                <mxCell id="KoJjdDhNUGe4t5XkSzCP-58" style="edgeStyle=none;html=1;exitX=1;exitY=0.5;exitDx=0;exitDy=0;entryX=1;entryY=0.5;entryDx=0;entryDy=0;" edge="1" parent="1" source="KoJjdDhNUGe4t5XkSzCP-49" target="KoJjdDhNUGe4t5XkSzCP-55">
                    <mxGeometry relative="1" as="geometry">
                        <Array as="points">
                            <mxPoint x="1200" y="66"/>
                            <mxPoint x="1200" y="-134"/>
                        </Array>
                    </mxGeometry>
                </mxCell>
                <mxCell id="KoJjdDhNUGe4t5XkSzCP-59" style="edgeStyle=none;html=1;exitX=0;exitY=0.5;exitDx=0;exitDy=0;entryX=1;entryY=0.5;entryDx=0;entryDy=0;" edge="1" parent="1" source="KoJjdDhNUGe4t5XkSzCP-55" target="15">
                    <mxGeometry relative="1" as="geometry">
                        <Array as="points">
                            <mxPoint x="920" y="-134"/>
                            <mxPoint x="920" y="-50"/>
                            <mxPoint x="920" y="50"/>
                        </Array>
                    </mxGeometry>
                </mxCell>
                <mxCell id="KoJjdDhNUGe4t5XkSzCP-65" style="edgeStyle=none;html=1;exitX=0;exitY=0.5;exitDx=0;exitDy=0;entryX=1;entryY=0.5;entryDx=0;entryDy=0;" edge="1" parent="1" source="KoJjdDhNUGe4t5XkSzCP-68" target="15">
                    <mxGeometry relative="1" as="geometry">
                        <mxPoint x="690" y="-320" as="sourcePoint"/>
                        <Array as="points">
                            <mxPoint x="620" y="-357"/>
                            <mxPoint x="620" y="50"/>
                        </Array>
                    </mxGeometry>
                </mxCell>
                <mxCell id="KoJjdDhNUGe4t5XkSzCP-61" style="edgeStyle=none;html=1;exitX=0;exitY=0.5;exitDx=0;exitDy=0;entryX=1.001;entryY=0.23;entryDx=0;entryDy=0;entryPerimeter=0;" edge="1" parent="1" source="KoJjdDhNUGe4t5XkSzCP-55" target="26">
                    <mxGeometry relative="1" as="geometry">
                        <mxPoint x="850" y="-320" as="targetPoint"/>
                        <Array as="points">
                            <mxPoint x="920" y="-134"/>
                            <mxPoint x="920" y="-522"/>
                        </Array>
                    </mxGeometry>
                </mxCell>
                <mxCell id="KoJjdDhNUGe4t5XkSzCP-64" style="edgeStyle=none;html=1;exitX=0;exitY=0.5;exitDx=0;exitDy=0;entryX=1;entryY=0.5;entryDx=0;entryDy=0;" edge="1" parent="1" source="KoJjdDhNUGe4t5XkSzCP-55">
                    <mxGeometry relative="1" as="geometry">
                        <Array as="points">
                            <mxPoint x="890" y="-134"/>
                            <mxPoint x="890" y="-200"/>
                        </Array>
                    </mxGeometry>
                </mxCell>
                <mxCell id="KoJjdDhNUGe4t5XkSzCP-66" value="Not logged" style="text;html=1;align=center;verticalAlign=middle;resizable=0;points=[];autosize=1;strokeColor=none;" vertex="1" parent="1">
                    <mxGeometry x="730" y="30" width="70" height="20" as="geometry"/>
                </mxCell>
                <mxCell id="KoJjdDhNUGe4t5XkSzCP-67" value="Edit info" style="swimlane;fontStyle=0;childLayout=stackLayout;horizontal=1;startSize=26;horizontalStack=0;resizeParent=1;resizeParentMax=0;resizeLast=0;collapsible=1;marginBottom=0;" vertex="1" parent="1">
                    <mxGeometry x="640" y="-410" width="215" height="150" as="geometry"/>
                </mxCell>
                <mxCell id="KoJjdDhNUGe4t5XkSzCP-68" value="Input: JSON {&#10;type:&quot;VIEW&quot;,&quot;SAVE&quot;&#10;}" style="text;strokeColor=none;fillColor=none;align=left;verticalAlign=top;spacingLeft=4;spacingRight=4;overflow=hidden;rotatable=0;points=[[0,0.5],[1,0.5]];portConstraint=eastwest;" vertex="1" parent="KoJjdDhNUGe4t5XkSzCP-67">
                    <mxGeometry y="26" width="215" height="54" as="geometry"/>
                </mxCell>
                <mxCell id="KoJjdDhNUGe4t5XkSzCP-69" value="Output: userInfo Modelor or save result" style="text;strokeColor=none;fillColor=none;align=left;verticalAlign=top;spacingLeft=4;spacingRight=4;overflow=hidden;rotatable=0;points=[[0,0.5],[1,0.5]];portConstraint=eastwest;" vertex="1" parent="KoJjdDhNUGe4t5XkSzCP-67">
                    <mxGeometry y="80" width="215" height="70" as="geometry"/>
                </mxCell>
                <mxCell id="KoJjdDhNUGe4t5XkSzCP-70" value="SocketIO&lt;br&gt;" style="text;html=1;align=center;verticalAlign=middle;resizable=0;points=[];autosize=1;strokeColor=none;" vertex="1" parent="1">
                    <mxGeometry x="120" y="330" width="60" height="20" as="geometry"/>
                </mxCell>
                <mxCell id="KoJjdDhNUGe4t5XkSzCP-71" style="edgeStyle=none;html=1;exitX=1;exitY=0.5;exitDx=0;exitDy=0;entryX=1;entryY=0.5;entryDx=0;entryDy=0;" edge="1" parent="1" source="14" target="15">
                    <mxGeometry relative="1" as="geometry">
                        <mxPoint x="1440" y="66.29411764705901" as="targetPoint"/>
                        <Array as="points">
                            <mxPoint x="1490" y="66"/>
                            <mxPoint x="1490" y="-670"/>
                            <mxPoint x="560" y="-670"/>
                            <mxPoint x="560" y="50"/>
                        </Array>
                    </mxGeometry>
                </mxCell>
                <mxCell id="KoJjdDhNUGe4t5XkSzCP-72" value="Change Password" style="swimlane;fontStyle=0;childLayout=stackLayout;horizontal=1;startSize=26;horizontalStack=0;resizeParent=1;resizeParentMax=0;resizeLast=0;collapsible=1;marginBottom=0;" vertex="1" parent="1">
                    <mxGeometry x="960" y="-550" width="215" height="150" as="geometry"/>
                </mxCell>
                <mxCell id="KoJjdDhNUGe4t5XkSzCP-73" value="Input: JSON {&#10;type:&quot;VIEW&quot;,&quot;SAVE&quot;&#10;}" style="text;strokeColor=none;fillColor=none;align=left;verticalAlign=top;spacingLeft=4;spacingRight=4;overflow=hidden;rotatable=0;points=[[0,0.5],[1,0.5]];portConstraint=eastwest;" vertex="1" parent="KoJjdDhNUGe4t5XkSzCP-72">
                    <mxGeometry y="26" width="215" height="54" as="geometry"/>
                </mxCell>
                <mxCell id="KoJjdDhNUGe4t5XkSzCP-74" value="Output: userInfo Modelor or save result" style="text;strokeColor=none;fillColor=none;align=left;verticalAlign=top;spacingLeft=4;spacingRight=4;overflow=hidden;rotatable=0;points=[[0,0.5],[1,0.5]];portConstraint=eastwest;" vertex="1" parent="KoJjdDhNUGe4t5XkSzCP-72">
                    <mxGeometry y="80" width="215" height="70" as="geometry"/>
                </mxCell>
                <mxCell id="23" value="Manage question" style="swimlane;fontStyle=0;childLayout=stackLayout;horizontal=1;startSize=26;horizontalStack=0;resizeParent=1;resizeParentMax=0;resizeLast=0;collapsible=1;marginBottom=0;" vertex="1" parent="1">
                    <mxGeometry x="640" y="-590" width="185" height="122" as="geometry"/>
                </mxCell>
                <mxCell id="24" value="Input:JSON {&#10;type:&quot;VIEW&quot;,,&quot;EDIT&quot; }&#10;&#10;Output: list of question or&#10;save new list of question&#10;after editing" style="text;strokeColor=none;fillColor=none;align=left;verticalAlign=top;spacingLeft=4;spacingRight=4;overflow=hidden;rotatable=0;points=[[0,0.5],[1,0.5]];portConstraint=eastwest;" vertex="1" parent="23">
                    <mxGeometry y="26" width="185" height="26" as="geometry"/>
                </mxCell>
                <mxCell id="26" value="&#10;Output: List of questions&#10;or save new list of &#10;questions " style="text;strokeColor=none;fillColor=none;align=left;verticalAlign=top;spacingLeft=4;spacingRight=4;overflow=hidden;rotatable=0;points=[[0,0.5],[1,0.5]];portConstraint=eastwest;" vertex="1" parent="23">
                    <mxGeometry y="52" width="185" height="70" as="geometry"/>
                </mxCell>
                <mxCell id="KoJjdDhNUGe4t5XkSzCP-75" style="edgeStyle=none;html=1;exitX=0;exitY=0.5;exitDx=0;exitDy=0;entryX=0.488;entryY=1.057;entryDx=0;entryDy=0;entryPerimeter=0;" edge="1" parent="1" source="KoJjdDhNUGe4t5XkSzCP-55" target="KoJjdDhNUGe4t5XkSzCP-74">
                    <mxGeometry relative="1" as="geometry">
                        <Array as="points">
                            <mxPoint x="920" y="-134"/>
                            <mxPoint x="920" y="-320"/>
                            <mxPoint x="1065" y="-320"/>
                        </Array>
                    </mxGeometry>
                </mxCell>
                <mxCell id="KoJjdDhNUGe4t5XkSzCP-76" style="edgeStyle=none;html=1;exitX=0;exitY=0.5;exitDx=0;exitDy=0;entryX=1;entryY=0.5;entryDx=0;entryDy=0;" edge="1" parent="1" source="KoJjdDhNUGe4t5XkSzCP-74" target="15">
                    <mxGeometry relative="1" as="geometry">
                        <Array as="points">
                            <mxPoint x="920" y="-435"/>
                            <mxPoint x="920" y="-640"/>
                            <mxPoint x="600" y="-640"/>
                            <mxPoint x="600" y="50"/>
                        </Array>
                    </mxGeometry>
                </mxCell>
                <mxCell id="KoJjdDhNUGe4t5XkSzCP-89" style="edgeStyle=none;html=1;exitX=0.5;exitY=0;exitDx=0;exitDy=0;" edge="1" parent="1" source="KoJjdDhNUGe4t5XkSzCP-80">
                    <mxGeometry relative="1" as="geometry">
                        <mxPoint x="1347.8235294117649" y="-670.0000000000002" as="targetPoint"/>
                    </mxGeometry>
                </mxCell>
                <mxCell id="KoJjdDhNUGe4t5XkSzCP-80" value="ManageAccount" style="swimlane;fontStyle=0;childLayout=stackLayout;horizontal=1;startSize=26;horizontalStack=0;resizeParent=1;resizeParentMax=0;resizeLast=0;collapsible=1;marginBottom=0;" vertex="1" parent="1">
                    <mxGeometry x="1240" y="-550" width="215" height="150" as="geometry"/>
                </mxCell>
                <mxCell id="KoJjdDhNUGe4t5XkSzCP-81" value="Input: JSON {&#10;type:&quot;VIEW&quot;,&quot;SAVE&quot;&#10;}" style="text;strokeColor=none;fillColor=none;align=left;verticalAlign=top;spacingLeft=4;spacingRight=4;overflow=hidden;rotatable=0;points=[[0,0.5],[1,0.5]];portConstraint=eastwest;" vertex="1" parent="KoJjdDhNUGe4t5XkSzCP-80">
                    <mxGeometry y="26" width="215" height="54" as="geometry"/>
                </mxCell>
                <mxCell id="KoJjdDhNUGe4t5XkSzCP-82" value="Output: userInfo Modelor or save result" style="text;strokeColor=none;fillColor=none;align=left;verticalAlign=top;spacingLeft=4;spacingRight=4;overflow=hidden;rotatable=0;points=[[0,0.5],[1,0.5]];portConstraint=eastwest;" vertex="1" parent="KoJjdDhNUGe4t5XkSzCP-80">
                    <mxGeometry y="80" width="215" height="70" as="geometry"/>
                </mxCell>
                <mxCell id="KoJjdDhNUGe4t5XkSzCP-83" style="edgeStyle=none;html=1;exitX=0;exitY=0.5;exitDx=0;exitDy=0;entryX=0;entryY=0.5;entryDx=0;entryDy=0;" edge="1" parent="1" source="KoJjdDhNUGe4t5XkSzCP-55" target="KoJjdDhNUGe4t5XkSzCP-85">
                    <mxGeometry relative="1" as="geometry">
                        <mxPoint x="1340" y="-260.0000000000002" as="targetPoint"/>
                        <Array as="points">
                            <mxPoint x="920" y="-134"/>
                            <mxPoint x="920" y="-287"/>
                        </Array>
                    </mxGeometry>
                </mxCell>
                <mxCell id="KoJjdDhNUGe4t5XkSzCP-88" style="edgeStyle=none;html=1;exitX=0.5;exitY=0;exitDx=0;exitDy=0;entryX=0.496;entryY=0.989;entryDx=0;entryDy=0;entryPerimeter=0;" edge="1" parent="1" source="KoJjdDhNUGe4t5XkSzCP-84" target="KoJjdDhNUGe4t5XkSzCP-82">
                    <mxGeometry relative="1" as="geometry"/>
                </mxCell>
                <mxCell id="KoJjdDhNUGe4t5XkSzCP-90" style="edgeStyle=none;html=1;exitX=0.5;exitY=0;exitDx=0;exitDy=0;" edge="1" parent="1" source="KoJjdDhNUGe4t5XkSzCP-84">
                    <mxGeometry relative="1" as="geometry">
                        <mxPoint x="1200" y="-670.0000000000002" as="targetPoint"/>
                        <Array as="points">
                            <mxPoint x="1348" y="-360"/>
                            <mxPoint x="1200" y="-360"/>
                        </Array>
                    </mxGeometry>
                </mxCell>
                <mxCell id="KoJjdDhNUGe4t5XkSzCP-84" value="RoleChecking" style="swimlane;fontStyle=0;childLayout=stackLayout;horizontal=1;startSize=26;horizontalStack=0;resizeParent=1;resizeParentMax=0;resizeLast=0;collapsible=1;marginBottom=0;" vertex="1" parent="1">
                    <mxGeometry x="1240" y="-340" width="215" height="150" as="geometry"/>
                </mxCell>
                <mxCell id="KoJjdDhNUGe4t5XkSzCP-85" value="Input: JSON {&#10;type:&quot;VIEW&quot;,&quot;SAVE&quot;&#10;}" style="text;strokeColor=none;fillColor=none;align=left;verticalAlign=top;spacingLeft=4;spacingRight=4;overflow=hidden;rotatable=0;points=[[0,0.5],[1,0.5]];portConstraint=eastwest;" vertex="1" parent="KoJjdDhNUGe4t5XkSzCP-84">
                    <mxGeometry y="26" width="215" height="54" as="geometry"/>
                </mxCell>
                <mxCell id="KoJjdDhNUGe4t5XkSzCP-86" value="Output: userInfo Modelor or save result" style="text;strokeColor=none;fillColor=none;align=left;verticalAlign=top;spacingLeft=4;spacingRight=4;overflow=hidden;rotatable=0;points=[[0,0.5],[1,0.5]];portConstraint=eastwest;" vertex="1" parent="KoJjdDhNUGe4t5XkSzCP-84">
                    <mxGeometry y="80" width="215" height="70" as="geometry"/>
                </mxCell>
                <mxCell id="19" value="Manage score" style="swimlane;fontStyle=0;childLayout=stackLayout;horizontal=1;startSize=26;horizontalStack=0;resizeParent=1;resizeParentMax=0;resizeLast=0;collapsible=1;marginBottom=0;" vertex="1" parent="1">
                    <mxGeometry x="660" y="-210" width="190" height="198" as="geometry"/>
                </mxCell>
                <mxCell id="20" value="Input: JSON{&#10;type:&quot;VIEW&quot;,&quot;DELETE&quot;&#10;  &#10;" style="text;strokeColor=none;fillColor=none;align=left;verticalAlign=top;spacingLeft=4;spacingRight=4;overflow=hidden;rotatable=0;points=[[0,0.5],[1,0.5]];portConstraint=eastwest;" vertex="1" parent="19">
                    <mxGeometry y="26" width="190" height="94" as="geometry"/>
                </mxCell>
                <mxCell id="21" value="Output:  Score of student&#10;or save new list score of&#10;student after removing &#10;&#10;" style="text;strokeColor=none;fillColor=none;align=left;verticalAlign=top;spacingLeft=4;spacingRight=4;overflow=hidden;rotatable=0;points=[[0,0.5],[1,0.5]];portConstraint=eastwest;" vertex="1" parent="19">
                    <mxGeometry y="120" width="190" height="78" as="geometry"/>
                </mxCell>
                <mxCell id="28" value="" style="endArrow=classic;html=1;exitX=0;exitY=0.5;exitDx=0;exitDy=0;" edge="1" parent="1" source="KoJjdDhNUGe4t5XkSzCP-55" target="20">
                    <mxGeometry width="50" height="50" relative="1" as="geometry">
                        <mxPoint x="910" y="20" as="sourcePoint"/>
                        <mxPoint x="960" y="-30" as="targetPoint"/>
                    </mxGeometry>
                </mxCell>
                <mxCell id="29" value="" style="endArrow=classic;html=1;exitX=0;exitY=0.5;exitDx=0;exitDy=0;entryX=0.999;entryY=0.009;entryDx=0;entryDy=0;entryPerimeter=0;" edge="1" parent="1" source="KoJjdDhNUGe4t5XkSzCP-55" target="KoJjdDhNUGe4t5XkSzCP-69">
                    <mxGeometry width="50" height="50" relative="1" as="geometry">
                        <mxPoint x="970" y="-220" as="sourcePoint"/>
                        <mxPoint x="1020" y="-270" as="targetPoint"/>
                        <Array as="points">
                            <mxPoint x="910" y="-134"/>
                            <mxPoint x="910" y="-329"/>
                        </Array>
                    </mxGeometry>
                </mxCell>
            </root>
        </mxGraphModel>
    </diagram>
</mxfile>